# xmcd
#
# Track frame offsets:
#	150
#	20312
#	43505
#	55095
#	75485
#	92890
#	113132
#	129332
#	143715
#	158035
#	179437
#
# Disc length: 2584 seconds
#
# Revision: 0
# Processed by: cddbd v1.4PL0 Copyright (c) Steve Scherf et al.
# Submitted via: dBpowerAMP V4.0
#
DISCID=820a160b
DTITLE=Sweet Pig Porker - Bluesman for Life
DYEAR=1998
DGENRE=Blues
TTITLE0=Bluesman for Life
TTITLE1=It's Midnight Baby
TTITLE2=Roy Jumps the Gator
TTITLE3=You Went Back on Your Word
TTITLE4=Lulu Mae
TTITLE5=Sweet Pig Porker
TTITLE6=Jump in My Cadillac
TTITLE7=Cat Came Back
TTITLE8=BWR
TTITLE9=You're Gonna Wish I Had Stayed
TTITLE10=Fly Away to Glory
EXTD=Album: Bluesman for Life\nyour name: Roy Gaines
EXTT0=
EXTT1=
EXTT2=
EXTT3=
EXTT4=
EXTT5=
EXTT6=
EXTT7=
EXTT8=
EXTT9=
EXTT10=
PLAYORDER=
